<svg xmlns="http://www.w3.org/2000/svg" xmlns:xlink="http://www.w3.org/1999/xlink" width="2000" zoomAndPan="magnify" viewBox="0 0 1500 1499.999933" height="2000" preserveAspectRatio="xMidYMid meet" version="1.0"><defs><clipPath id="0a0ac0f338"><path d="M 83.332031 0 L 1416.667969 0 L 1416.667969 1500 L 83.332031 1500 Z M 83.332031 0 " clip-rule="nonzero"/></clipPath><clipPath id="18cf1e7202"><path d="M 750 750 C -391.667969 722.222656 155.554688 -222.222656 750 750 Z M 750 750 C 202.777344 1750 1294.445312 1750 750 750 Z M 750 750 C -391.667969 777.777344 155.554688 1722.222656 750 750 Z M 750 750 C 202.777344 -250 1294.445312 -250 750 750 Z M 750 750 C 1344.445312 1722.222656 1891.667969 777.777344 750 750 Z M 750 750 C 1344.445312 -222.222656 1891.667969 722.222656 750 750 Z M 800 750 C 783.332031 750 766.667969 750 750 750 C 758.332031 736.109375 766.667969 722.222656 775 705.554688 C 766.667969 719.445312 758.332031 736.109375 750 750 C 741.667969 736.109375 733.332031 719.445312 725 705.554688 C 733.332031 719.445312 741.667969 736.109375 750 750 C 733.332031 750 716.667969 750 700 750 C 716.667969 750 733.332031 750 750 750 C 741.667969 763.890625 733.332031 777.777344 725 794.445312 C 733.332031 780.554688 741.667969 763.890625 750 750 C 758.332031 763.890625 766.667969 780.554688 775 794.445312 C 766.667969 780.554688 758.332031 763.890625 750 750 C 766.667969 750 783.332031 750 800 750 Z M 800 750 " clip-rule="nonzero"/></clipPath><clipPath id="872740d38d"><path d="M 0.332031 0 L 1333.667969 0 L 1333.667969 1500 L 0.332031 1500 Z M 0.332031 0 " clip-rule="nonzero"/></clipPath><clipPath id="7956dc1d19"><path d="M 667 750 C -474.667969 722.222656 72.554688 -222.222656 667 750 Z M 667 750 C 119.777344 1750 1211.445312 1750 667 750 Z M 667 750 C -474.667969 777.777344 72.554688 1722.222656 667 750 Z M 667 750 C 119.777344 -250 1211.445312 -250 667 750 Z M 667 750 C 1261.445312 1722.222656 1808.667969 777.777344 667 750 Z M 667 750 C 1261.445312 -222.222656 1808.667969 722.222656 667 750 Z M 717 750 C 700.332031 750 683.667969 750 667 750 C 675.332031 736.109375 683.667969 722.222656 692 705.554688 C 683.667969 719.445312 675.332031 736.109375 667 750 C 658.667969 736.109375 650.332031 719.445312 642 705.554688 C 650.332031 719.445312 658.667969 736.109375 667 750 C 650.332031 750 633.667969 750 617 750 C 633.667969 750 650.332031 750 667 750 C 658.667969 763.890625 650.332031 777.777344 642 794.445312 C 650.332031 780.554688 658.667969 763.890625 667 750 C 675.332031 763.890625 683.667969 780.554688 692 794.445312 C 683.667969 780.554688 675.332031 763.890625 667 750 C 683.667969 750 700.332031 750 717 750 Z M 717 750 " clip-rule="nonzero"/></clipPath><clipPath id="4547921a13"><rect x="0" width="1334" y="0" height="1500"/></clipPath></defs><g clip-path="url(#0a0ac0f338)"><g clip-path="url(#18cf1e7202)"><g transform="matrix(1, 0, 0, 1, 83, 0.000000000000112861)"><g clip-path="url(#4547921a13)"><g clip-path="url(#872740d38d)"><g clip-path="url(#7956dc1d19)"><path fill="#ffffff" d="M 0.332031 0 L 1333.667969 0 L 1333.667969 1500 L 0.332031 1500 Z M 0.332031 0 " fill-opacity="1" fill-rule="nonzero"/></g></g></g></g></g></g></svg>